<?xml version="1.0" encoding="UTF-8"?><svg id="Layer_2" xmlns="http://www.w3.org/2000/svg" viewBox="0 0 66.97 40.73"><defs><style>.cls-1{fill:#fff;}</style></defs><g id="Layer_1-2"><g><path class="cls-1" d="M19.99,.23c.16,.02,.29,.1,.4,.22,.11,.12,.17,.26,.17,.43,.02,.18-.04,.35-.17,.49-.13,.14-.29,.22-.48,.23-.04,0-.07,0-.1,0-.03,0-.06-.01-.09-.02-.58-.14-1.11-.2-1.6-.2-.49,0-.99,.05-1.51,.14-.79,.13-1.47,.34-2.04,.62s-1.05,.63-1.46,1.03-.74,.84-1,1.33c-.26,.49-.49,1-.67,1.52l-1.9,6.18-.02,.13c-.06,.28-.24,.45-.53,.52h-.01s-.01,0-.02,0c0,0-.01,0-.02,0h-.07c-.14,0-.25-.04-.35-.11-.1-.07-.17-.16-.21-.28l-1.6-3.22c-.1-.16-.21-.24-.35-.24s-.25,.08-.35,.24l-1.61,3.22c-.02,.06-.05,.1-.08,.13-.06,.07-.13,.13-.21,.18s-.18,.07-.28,.07h-.05c-.21-.02-.36-.12-.47-.3-.05-.07-.08-.15-.11-.23l-.02-.13L1.29,6.02c-.03-.09-.06-.17-.09-.25s-.06-.16-.1-.25l-.12-.29s-.01-.06-.01-.12c0-.2,.07-.37,.21-.51s.31-.21,.51-.21c.24,0,.43,.09,.56,.28,.03,.06,.06,.11,.08,.17,.02,.06,.04,.12,.07,.18,.06,.16,.12,.32,.18,.49s.11,.33,.17,.49l.97,3.2s.01,0,.01-.01c.04,.2,.16,.3,.36,.3,.09,0,.17-.03,.23-.09s.12-.13,.16-.22l1.26-2.52v-.02s.06-.09,.1-.12l.07-.07s.01,0,.01,0,0,0,.01,0h0s.03-.03,.03-.03c0,0,.01,0,.03-.02l.04-.02s.01,0,.01,0,0,0,.01,0h.01s.02-.01,.02-.01h.01s.01-.01,.01-.01c0,0,.02-.01,.02-.01h.01s.01,0,.01,0,0,0,.01,0h.04s.04-.01,.04-.01c0,0,.02,0,.02-.01h.2s0,.01,.02,.01h.02s.02,.01,.04,.01h.02s.01,.01,.01,.01h.01s.02,.01,.02,.01h.01s.02,.02,.02,.02h.04s.05,.04,.07,.05c.02,.01,.04,.03,.05,.04h0s.01,.01,.01,.02c0,0,0,0,.01,0l.04,.04s0,.01,.01,.01c.02,.02,.03,.03,.04,.05,.01,.02,.03,.04,.04,.07,0,.02,0,.02,.01,.02l1.28,2.58h0s0,.01,0,.02c0,0,0,.01,0,.02l.05,.08c.09,.11,.19,.17,.31,.17,.2,0,.32-.1,.36-.3h0s.96-3.16,.96-3.16l.04-.07c.16-.51,.36-1.03,.59-1.54s.53-1.01,.89-1.49c.27-.36,.57-.69,.89-.98,.32-.29,.67-.55,1.06-.79,.86-.52,1.84-.87,2.96-1.04,.5-.09,.97-.14,1.4-.15,.43-.01,.86,0,1.27,.05,.15,.02,.3,.04,.46,.07,.15,.03,.31,.06,.47,.1Z"/><path class="cls-1" d="M18.86,4.37c.19,0,.36,.07,.49,.2,.14,.14,.2,.3,.2,.49v7.1c0,.2-.07,.37-.2,.5s-.3,.2-.49,.2-.37-.07-.5-.2c-.14-.14-.2-.3-.2-.5v-2.38c0-.18-.06-.34-.19-.47s-.28-.2-.47-.22h-2.42c-.17,.02-.31,.09-.43,.22-.12,.13-.18,.28-.19,.44v2.4c0,.2-.07,.37-.2,.5s-.3,.2-.5,.2-.36-.07-.5-.2c-.14-.14-.21-.3-.21-.5V5.06c0-.19,.07-.36,.21-.49,.14-.14,.31-.2,.5-.2s.37,.07,.5,.2c.14,.14,.2,.3,.2,.49v1.98c0,.18,.08,.34,.21,.47,.13,.13,.29,.19,.47,.19h2.39c.18-.02,.33-.09,.45-.22,.12-.13,.19-.28,.19-.47v-1.96c0-.19,.07-.36,.2-.49,.14-.14,.3-.2,.5-.2Z"/><path class="cls-1" d="M27.36,11.93c.06,.18,.06,.36-.02,.54-.08,.18-.21,.3-.4,.36s-.37,.06-.55-.02c-.18-.08-.3-.21-.37-.4l-.22-.6c-.06-.16-.18-.3-.36-.42-.18-.12-.36-.18-.54-.18h-1.57c-.19,0-.38,.06-.55,.18-.18,.12-.29,.26-.35,.42l-.23,.6c-.05,.14-.13,.26-.26,.34-.12,.08-.26,.13-.4,.13-.1,0-.18-.02-.24-.05-.18-.06-.32-.18-.4-.36-.08-.18-.09-.36-.02-.54l2.57-7.09c.05-.14,.13-.26,.25-.34s.26-.13,.41-.13,.29,.04,.41,.13,.2,.19,.25,.33l2.58,7.1Zm-2.95-2.12c.18,0,.32-.06,.41-.19,.09-.12,.1-.28,.04-.46l-.49-1.37c-.06-.18-.14-.28-.23-.28s-.17,.09-.23,.28l-.5,1.37c-.06,.18-.05,.34,.04,.46,.09,.12,.23,.19,.41,.19h.56Z"/><path class="cls-1" d="M32.73,4.32c.19,0,.36,.07,.5,.2,.14,.14,.21,.3,.21,.5s-.07,.36-.21,.49c-.14,.14-.31,.2-.5,.2h-1.32c-.18,0-.34,.08-.47,.21-.13,.13-.2,.29-.2,.47v5.72c0,.19-.07,.36-.2,.5-.14,.14-.3,.21-.5,.21s-.36-.07-.49-.21c-.14-.14-.2-.31-.2-.5V6.69h-.01v-.29c0-.18-.06-.34-.19-.47-.13-.13-.28-.2-.47-.21h-1.32c-.2,0-.37-.07-.5-.2-.14-.14-.2-.3-.2-.49s.07-.37,.2-.5,.3-.2,.5-.2h5.39Z"/><path class="cls-1" d="M39.18,8.48c.33,.28,.57,.59,.72,.92,.15,.38,.2,.82,.14,1.3-.04,.29-.13,.56-.28,.82-.14,.26-.33,.48-.56,.66-.54,.44-1.24,.66-2.1,.66-.41,0-.79-.07-1.16-.2-.36-.14-.69-.33-.97-.58-.26-.23-.46-.5-.6-.79-.14-.3-.22-.59-.22-.89v-.22c0-.19,.07-.36,.21-.49,.14-.14,.31-.2,.5-.2s.36,.07,.5,.2c.14,.14,.21,.3,.21,.49v.22c0,.07,.03,.17,.09,.29,.06,.12,.15,.24,.28,.35,.12,.11,.28,.21,.47,.29s.42,.12,.68,.12c.33,0,.59-.04,.79-.11,.2-.08,.35-.16,.46-.26,.11-.1,.18-.2,.22-.3s.06-.17,.07-.22c.02-.19,.01-.36-.03-.5s-.13-.28-.27-.4c-.14-.12-.32-.23-.56-.34-.24-.11-.54-.22-.91-.33-.57-.18-1.05-.4-1.44-.68-.31-.25-.55-.52-.71-.8-.21-.37-.28-.78-.22-1.22,.04-.26,.12-.5,.25-.72,.12-.22,.29-.42,.5-.59,.47-.38,1.08-.56,1.84-.56,.36,0,.7,.06,1.01,.17,.31,.12,.59,.28,.84,.5,.22,.21,.4,.44,.52,.7,.12,.26,.19,.52,.19,.79,0,.19-.07,.36-.2,.49-.14,.14-.3,.2-.49,.2s-.37-.07-.5-.2c-.14-.14-.2-.3-.2-.49,0-.06-.02-.13-.07-.21-.04-.08-.11-.17-.21-.25-.1-.08-.22-.15-.36-.21-.14-.06-.32-.09-.52-.09-.43,0-.75,.08-.95,.25-.09,.07-.15,.15-.17,.22-.03,.08-.05,.13-.05,.17-.02,.15,0,.29,.08,.41s.19,.24,.32,.34,.29,.19,.46,.26c.17,.07,.34,.13,.51,.18,.31,.1,.63,.21,.97,.35,.33,.14,.63,.31,.91,.53Z"/><path class="cls-1" d="M50.47,4.32c.19,0,.36,.07,.5,.2,.14,.14,.21,.3,.21,.5s-.07,.36-.21,.49c-.14,.14-.31,.2-.5,.2h-1.32c-.18,0-.34,.08-.47,.21-.13,.13-.2,.29-.2,.47v5.72c0,.19-.07,.36-.2,.5-.14,.14-.3,.21-.5,.21s-.36-.07-.49-.21c-.14-.14-.2-.31-.2-.5V6.69h-.01v-.29c0-.18-.06-.34-.19-.47-.13-.13-.28-.2-.47-.21h-1.32c-.2,0-.37-.07-.5-.2-.14-.14-.2-.3-.2-.49s.07-.37,.2-.5c.14-.14,.3-.2,.5-.2h5.39Z"/><path class="cls-1" d="M62.47,1.08c.12,.14,.18,.29,.18,.47,0,.19-.07,.36-.21,.5-.14,.14-.31,.21-.5,.21-.16,0-.3-.05-.43-.16-.05-.03-.08-.06-.1-.08-.33-.28-.72-.42-1.16-.42-.25,0-.48,.05-.7,.14-.22,.09-.41,.22-.57,.38-.16,.16-.29,.35-.38,.57-.1,.22-.14,.45-.14,.7V12.23c0,.2-.07,.37-.2,.5-.14,.14-.3,.2-.49,.2s-.37-.07-.5-.2c-.14-.14-.2-.3-.2-.5v-2.38c0-.18-.06-.34-.19-.47-.13-.13-.28-.2-.47-.22h-2.42c-.17,.02-.31,.09-.43,.22-.12,.13-.18,.28-.19,.44v2.4c0,.2-.07,.37-.2,.5-.14,.14-.3,.2-.5,.2s-.36-.07-.5-.2c-.14-.14-.21-.3-.21-.5V5.12c0-.19,.07-.36,.21-.49,.14-.14,.31-.2,.5-.2s.37,.07,.5,.2c.14,.14,.2,.3,.2,.49v1.98c0,.18,.08,.34,.21,.47,.13,.13,.29,.19,.47,.19h2.39c.17-.02,.31-.08,.43-.19,.12-.11,.19-.25,.2-.42V3.38c0-.44,.08-.85,.25-1.24s.4-.73,.68-1.02,.63-.52,1.01-.69,.81-.25,1.25-.25c.41,0,.79,.07,1.15,.21,.36,.14,.68,.33,.96,.58l.11,.11Z"/><path class="cls-1" d="M64.68,11.46c.2,0,.37,.07,.5,.21,.14,.14,.2,.31,.2,.5s-.07,.37-.2,.5c-.14,.14-.3,.2-.5,.2h-3.77c-.34,0-.61-.09-.83-.27s-.32-.41-.32-.68V5.31c0-.27,.11-.5,.32-.68,.22-.18,.49-.27,.83-.27h3.73c.2,0,.37,.07,.5,.2,.14,.14,.2,.3,.2,.49s-.07,.37-.2,.5c-.14,.14-.3,.2-.5,.2h-2.83c-.18,.02-.34,.09-.46,.22-.12,.13-.19,.28-.19,.47v.55c0,.19,.07,.35,.2,.49,.14,.13,.3,.2,.48,.2h.07s1.84,.01,1.84,.01c.2,0,.37,.07,.5,.2,.14,.14,.2,.3,.2,.5s-.07,.36-.2,.49c-.14,.14-.3,.2-.5,.2h-1.96c-.18,.02-.34,.09-.46,.22s-.18,.28-.18,.47v.98c0,.19,.07,.35,.2,.49,.14,.13,.3,.2,.48,.2h2.83Z"/><path class="cls-1" d="M8.66,18.77c.19,0,.36,.07,.5,.2,.14,.14,.21,.3,.21,.49s-.07,.37-.21,.5c-.14,.14-.31,.2-.5,.2h-2.84c-.18,.02-.34,.09-.46,.22-.12,.13-.18,.28-.18,.47v.55c0,.19,.07,.35,.2,.49,.13,.13,.29,.2,.49,.2h.06s1.85,.01,1.85,.01c.19,0,.36,.07,.49,.2s.2,.3,.2,.5-.07,.36-.2,.49-.3,.2-.49,.2h-1.97c-.18,.02-.32,.09-.44,.22-.12,.13-.18,.28-.18,.47v2.38c0,.2-.07,.37-.21,.5-.14,.14-.31,.2-.5,.2s-.37-.07-.5-.2c-.14-.14-.2-.3-.2-.5v-6.85c0-.27,.11-.5,.33-.68,.22-.18,.5-.27,.83-.27h3.73Z"/><path class="cls-1" d="M13.85,18.77c.58,0,1.12,.1,1.63,.31,.51,.21,.97,.52,1.37,.92,.41,.41,.72,.87,.92,1.37,.21,.51,.31,1.05,.31,1.63s-.1,1.12-.31,1.62c-.21,.5-.52,.96-.92,1.37-.41,.41-.87,.72-1.37,.93-.51,.21-1.05,.32-1.63,.32s-1.12-.11-1.62-.32c-.5-.21-.96-.52-1.37-.93-.83-.83-1.25-1.83-1.25-2.99,0-.58,.11-1.12,.32-1.63,.21-.51,.52-.97,.93-1.37,.41-.41,.86-.72,1.37-.92,.5-.21,1.04-.31,1.62-.31Zm0,7.06c.39,0,.76-.07,1.1-.22,.34-.15,.64-.35,.9-.61,.26-.26,.46-.55,.61-.89,.15-.34,.22-.71,.22-1.1s-.07-.76-.22-1.1c-.15-.34-.35-.64-.61-.9-.26-.26-.56-.46-.9-.61-.34-.15-.71-.22-1.1-.22s-.75,.07-1.09,.22c-.34,.15-.64,.35-.9,.61-.26,.26-.46,.56-.61,.9-.15,.34-.22,.71-.22,1.1s.07,.76,.22,1.1c.15,.34,.35,.64,.61,.89s.56,.46,.9,.61c.34,.15,.71,.22,1.09,.22Z"/><path class="cls-1" d="M36.36,29.37c.1,.18,.11,.38,.05,.58-.06,.2-.19,.35-.37,.44-.7,.36-1.41,.64-2.11,.83-.7,.2-1.45,.29-2.24,.29-.39,0-.81-.02-1.26-.07-.57-.06-1.12-.19-1.66-.4s-1.05-.47-1.54-.78c-.49-.31-.95-.67-1.37-1.06-.43-.4-.82-.81-1.18-1.24-.26-.31-.5-.62-.72-.91s-.41-.57-.57-.82c-.16-.25-.3-.47-.41-.65s-.19-.33-.23-.44v-.04s-.05-.07-.07-.11c-.02-.04-.06-.09-.11-.13-.05-.04-.11-.07-.2-.1-.08-.03-.19-.04-.33-.04h-.76c-.18,0-.33,.06-.46,.19-.13,.12-.2,.28-.2,.46v1.25c0,.2-.07,.37-.2,.51-.14,.14-.31,.21-.52,.21s-.37-.07-.5-.21c-.14-.14-.2-.31-.2-.51v-7.2c0-.2,.07-.37,.2-.5,.14-.14,.3-.2,.5-.2h2.66c.42,0,.81,.08,1.17,.23,.36,.16,.68,.37,.95,.64,.27,.27,.49,.59,.65,.95,.16,.36,.24,.75,.24,1.17,0,.48-.1,.92-.31,1.32s-.47,.74-.81,1.02c-.18,.14-.26,.29-.25,.43,.01,.14,.05,.26,.1,.35,.34,.57,.72,1.14,1.16,1.72,.44,.58,.92,1.1,1.45,1.58,.53,.48,1.1,.88,1.71,1.21,.61,.33,1.27,.53,1.96,.6,.18,.02,.36,.03,.53,.04,.17,.01,.35,.02,.52,.02,.56,0,1.14-.07,1.73-.2,.59-.14,1.25-.39,1.98-.76,.1-.06,.22-.08,.35-.08,.14,0,.26,.03,.38,.1s.21,.17,.28,.31Zm-13.81-6.07c.22,0,.42-.04,.61-.13,.19-.08,.36-.2,.5-.34s.26-.31,.34-.5c.08-.19,.12-.4,.12-.61s-.04-.42-.12-.61-.19-.36-.34-.5c-.14-.14-.31-.25-.5-.34-.19-.08-.4-.13-.61-.13h-1.31c-.16,.02-.3,.08-.42,.19-.12,.11-.19,.25-.22,.41v1.91c0,.18,.06,.34,.19,.46,.13,.12,.28,.19,.46,.19h1.3Z"/><path class="cls-1" d="M32.16,25.86c.2,0,.37,.07,.5,.21,.14,.14,.2,.31,.2,.5s-.07,.37-.2,.5c-.14,.14-.3,.2-.5,.2h-3.77c-.34,0-.61-.09-.83-.27s-.32-.41-.32-.68v-6.61c0-.27,.11-.5,.32-.68,.22-.18,.49-.27,.83-.27h3.73c.2,0,.37,.07,.5,.2,.14,.14,.2,.3,.2,.49s-.07,.37-.2,.5c-.14,.14-.3,.2-.5,.2h-2.83c-.18,.02-.34,.09-.46,.22-.12,.13-.19,.28-.19,.47v.55c0,.19,.07,.35,.2,.49,.14,.13,.3,.2,.48,.2h.07s1.84,.01,1.84,.01c.2,0,.37,.07,.5,.2,.14,.14,.2,.3,.2,.5s-.07,.36-.2,.49c-.14,.14-.3,.2-.5,.2h-1.96c-.18,.02-.34,.09-.46,.22-.12,.13-.18,.28-.18,.47v.98c0,.19,.07,.35,.2,.49,.14,.13,.3,.2,.48,.2h2.83Z"/><path class="cls-1" d="M37.64,20.11c-.38,0-.75,.07-1.1,.21-.35,.14-.66,.35-.94,.63-.27,.27-.48,.58-.62,.93-.14,.35-.22,.71-.22,1.1s.07,.76,.22,1.11c.14,.35,.35,.66,.62,.93,.28,.28,.6,.49,.95,.64,.36,.14,.72,.22,1.09,.22s.73-.07,1.09-.22c.36-.14,.67-.36,.95-.64,.14-.14,.3-.2,.5-.2s.36,.07,.5,.2c.14,.14,.2,.3,.2,.5s-.07,.36-.2,.5c-.41,.41-.87,.72-1.39,.94-.52,.22-1.07,.32-1.64,.32s-1.12-.11-1.64-.32c-.52-.22-.98-.53-1.39-.94-.41-.41-.72-.87-.93-1.39s-.32-1.07-.32-1.64,.11-1.12,.32-1.64,.52-.98,.93-1.39c.41-.41,.87-.72,1.39-.94,.52-.22,1.07-.32,1.64-.32s1.12,.11,1.64,.32c.52,.22,.98,.53,1.39,.94,.14,.14,.2,.3,.2,.5s-.07,.36-.2,.5c-.14,.14-.3,.2-.5,.2s-.36-.07-.5-.2c-.27-.28-.58-.49-.94-.63-.35-.14-.72-.21-1.1-.21Z"/><path class="cls-1" d="M48.41,26.33c.06,.18,.06,.36-.02,.54-.08,.18-.21,.3-.4,.36-.18,.06-.37,.06-.54-.02-.18-.08-.3-.21-.37-.4l-.22-.6c-.06-.16-.18-.3-.36-.42-.18-.12-.36-.18-.54-.18h-1.57c-.19,0-.38,.06-.55,.18-.18,.12-.29,.26-.35,.42l-.23,.6c-.05,.14-.13,.26-.26,.34s-.26,.13-.4,.13c-.1,0-.18-.02-.24-.05-.18-.06-.32-.18-.4-.36-.08-.18-.09-.36-.02-.54l2.57-7.09c.05-.14,.13-.26,.25-.34s.26-.13,.41-.13,.29,.04,.41,.13,.2,.19,.25,.33l2.58,7.1Zm-2.95-2.12c.18,0,.32-.06,.41-.19,.09-.12,.1-.28,.04-.46l-.49-1.37c-.06-.18-.14-.28-.23-.28s-.17,.09-.23,.28l-.5,1.37c-.06,.18-.05,.34,.04,.46,.09,.12,.23,.19,.41,.19h.56Z"/><path class="cls-1" d="M54.51,22.88c.33,.28,.57,.59,.72,.92,.15,.38,.2,.82,.14,1.3-.04,.29-.13,.56-.28,.82-.14,.26-.33,.48-.56,.66-.54,.44-1.24,.66-2.1,.66-.41,0-.79-.07-1.16-.2-.36-.14-.69-.33-.97-.58-.26-.23-.46-.5-.6-.79-.14-.3-.22-.59-.22-.89v-.22c0-.19,.07-.36,.21-.49,.14-.14,.31-.2,.5-.2s.36,.07,.5,.2c.14,.14,.21,.3,.21,.49v.22c0,.07,.03,.17,.09,.29,.06,.12,.15,.24,.28,.35,.12,.11,.28,.21,.47,.29,.19,.08,.42,.12,.68,.12,.33,0,.59-.04,.79-.11s.35-.16,.46-.26c.11-.1,.18-.2,.22-.3s.06-.17,.07-.22c.02-.19,.01-.36-.03-.5s-.13-.28-.27-.4-.32-.23-.56-.34c-.24-.11-.54-.22-.91-.33-.57-.18-1.05-.4-1.44-.68-.31-.25-.55-.52-.71-.8-.21-.37-.28-.78-.22-1.22,.04-.26,.12-.5,.25-.72s.29-.42,.5-.59c.47-.38,1.08-.56,1.84-.56,.36,0,.7,.06,1.01,.17,.31,.12,.59,.28,.84,.5,.22,.21,.4,.44,.52,.7,.12,.26,.19,.52,.19,.79,0,.19-.07,.36-.2,.49-.14,.14-.3,.2-.49,.2s-.37-.07-.5-.2c-.14-.14-.2-.3-.2-.49,0-.06-.02-.13-.07-.21s-.11-.17-.21-.25c-.1-.08-.22-.15-.36-.21-.14-.06-.32-.09-.52-.09-.43,0-.75,.08-.95,.25-.09,.07-.15,.15-.17,.22-.03,.08-.05,.13-.05,.17-.02,.15,0,.29,.08,.41s.19,.24,.32,.34c.14,.1,.29,.19,.46,.26,.17,.07,.34,.13,.51,.18,.31,.1,.63,.21,.97,.35s.63,.31,.91,.53Z"/><path class="cls-1" d="M61.77,18.72c.19,0,.36,.07,.5,.2,.14,.14,.21,.3,.21,.5s-.07,.36-.21,.49c-.14,.14-.31,.2-.5,.2h-1.32c-.18,0-.34,.08-.47,.21-.13,.13-.2,.29-.2,.47v5.72c0,.19-.07,.36-.2,.5-.14,.14-.3,.21-.5,.21s-.36-.07-.49-.21c-.14-.14-.2-.31-.2-.5v-5.44h-.01v-.29c0-.18-.06-.34-.19-.47-.13-.13-.28-.2-.47-.21h-1.32c-.2,0-.37-.07-.5-.2-.14-.14-.2-.3-.2-.49s.07-.37,.2-.5c.14-.14,.3-.2,.5-.2h5.39Z"/></g></g></svg>