<?xml version="1.0" encoding="UTF-8"?><svg id="Layer_2" xmlns="http://www.w3.org/2000/svg" viewBox="0 0 180.72 71.34"><defs><style>.cls-1{fill:#fff;}</style></defs><g id="Layer_1-2"><g><path class="cls-1" d="M.26,3.25H3.33l4.65,13.75L12.9,3.25h1.48l4.92,13.75L23.95,3.25h3.09l-6.94,19.5h-1.48l-4.97-13.18-4.97,13.18h-1.48L.26,3.25Z"/><path class="cls-1" d="M47.24,22.75h-2.89V14.2h-9.18v8.55h-2.89V3.25h2.89V11.8h9.18V3.25h2.89V22.75Z"/><path class="cls-1" d="M64.97,18.3h-8.22l-1.74,4.45h-3.04L59.98,3.25h1.77l8.01,19.5h-3.04l-1.74-4.45Zm-.94-2.39l-3.17-8.04-3.17,8.04h6.34Z"/><path class="cls-1" d="M79.51,5.64V22.75h-2.89V5.64h-6.03V3.25h14.95v2.39h-6.03Z"/><path class="cls-1" d="M102.96,17.58c0,3.77-3.51,5.28-7.02,5.3-2.57,.03-5.41-1.12-7.23-3.09l1.92-1.92c1.12,1.4,3.22,2.63,5.3,2.63,2.26-.03,4.13-.81,4.13-2.73,0-1.69-1.79-2.39-4.86-3.69-2.52-1.07-5.54-2.34-5.54-5.64,0-2.6,2.47-5.3,6.53-5.3,2.86,0,5.15,1.14,6.97,3.15l-1.92,1.85c-1.25-1.35-3.12-2.6-5.38-2.6-1.77,0-3.3,.99-3.3,2.65,0,2.34,2.7,3.2,4.73,4,2.7,1.07,5.67,2.44,5.67,5.41Z"/><path class="cls-1" d="M130.78,5.64V22.75h-2.89V5.64h-6.03V3.25h14.95v2.39h-6.03Z"/><path class="cls-1" d="M157.01,22.75h-2.89V14.2h-9.18v8.55h-2.89V3.25h2.89V11.8h9.18V3.25h2.89V22.75Z"/><path class="cls-1" d="M176.51,22.75h-13.47V3.25h12.97v2.39h-10.09v5.77h8.24v2.42h-8.24v6.53h10.58v2.39Z"/></g><g><path class="cls-1" d="M16.96,27.49c.58,0,1.07,.21,1.49,.61,.42,.41,.63,.9,.63,1.48s-.21,1.1-.63,1.51c-.42,.41-.92,.61-1.49,.61H8.43c-.55,.05-1.01,.26-1.37,.65-.36,.38-.54,.85-.54,1.4v1.66c0,.58,.2,1.06,.59,1.46s.88,.59,1.46,.59h.18v.04h5.54c.58,0,1.07,.2,1.48,.61,.41,.41,.61,.91,.61,1.51s-.2,1.07-.61,1.48-.9,.61-1.48,.61h-5.9c-.53,.05-.97,.26-1.33,.65-.36,.38-.54,.85-.54,1.4v7.13c0,.6-.21,1.1-.63,1.51-.42,.41-.92,.61-1.49,.61s-1.1-.2-1.51-.61c-.41-.41-.61-.91-.61-1.51V30.33c0-.82,.33-1.49,.99-2.03s1.49-.81,2.5-.81h11.2Z"/><path class="cls-1" d="M32.55,27.49c1.73,0,3.35,.31,4.88,.94s2.9,1.55,4.12,2.77,2.15,2.6,2.77,4.12c.62,1.52,.94,3.15,.94,4.88s-.31,3.35-.94,4.86c-.62,1.51-1.55,2.88-2.77,4.1s-2.6,2.15-4.12,2.79-3.15,.95-4.88,.95-3.35-.32-4.86-.95c-1.51-.64-2.88-1.57-4.1-2.79-2.5-2.5-3.74-5.48-3.74-8.96,0-1.73,.32-3.35,.95-4.88,.64-1.52,1.57-2.9,2.79-4.12,1.22-1.22,2.59-2.15,4.1-2.77,1.51-.62,3.13-.94,4.86-.94Zm0,21.17c1.18,0,2.28-.22,3.31-.67,1.03-.44,1.93-1.05,2.7-1.82s1.37-1.66,1.82-2.68c.44-1.02,.67-2.12,.67-3.29s-.22-2.28-.67-3.31c-.44-1.03-1.05-1.93-1.82-2.7-.77-.77-1.67-1.37-2.7-1.82-1.03-.44-2.14-.67-3.31-.67s-2.24,.22-3.28,.67c-1.03,.45-1.93,1.05-2.7,1.82s-1.37,1.67-1.82,2.7c-.44,1.03-.67,2.14-.67,3.31s.22,2.27,.67,3.29c.44,1.02,1.05,1.92,1.82,2.68,.77,.77,1.67,1.37,2.7,1.82,1.03,.45,2.12,.67,3.28,.67Z"/><path class="cls-1" d="M100.09,59.31c.29,.55,.34,1.13,.14,1.73-.19,.6-.56,1.04-1.12,1.33-2.11,1.08-4.22,1.91-6.34,2.5-2.11,.59-4.36,.88-6.73,.88-1.18,0-2.44-.07-3.78-.22-1.7-.17-3.37-.56-4.99-1.19s-3.16-1.4-4.63-2.34-2.84-2-4.12-3.19c-1.28-1.19-2.47-2.43-3.55-3.73-.79-.94-1.51-1.85-2.16-2.74-.65-.89-1.22-1.7-1.71-2.45s-.9-1.4-1.22-1.96c-.32-.56-.56-1-.7-1.31l-.04-.11c-.05-.09-.11-.21-.18-.34-.07-.13-.18-.26-.32-.38-.14-.12-.34-.22-.59-.31s-.58-.13-.99-.13h-2.27c-.53,0-.99,.19-1.39,.56-.4,.37-.59,.83-.59,1.39v3.74c0,.6-.2,1.11-.61,1.53-.41,.42-.92,.63-1.55,.63s-1.1-.21-1.51-.63-.61-.93-.61-1.53V29.47c0-.6,.2-1.1,.61-1.51s.91-.61,1.51-.61h7.99c1.25,0,2.42,.23,3.51,.7s2.05,1.11,2.86,1.93c.82,.82,1.46,1.77,1.94,2.86,.48,1.09,.72,2.26,.72,3.51,0,1.44-.31,2.76-.92,3.96s-1.42,2.22-2.43,3.06c-.53,.43-.77,.86-.74,1.28s.14,.77,.31,1.06c1.01,1.7,2.17,3.42,3.49,5.15,1.32,1.73,2.77,3.31,4.36,4.75,1.58,1.44,3.29,2.65,5.13,3.64s3.8,1.58,5.89,1.8c.55,.05,1.09,.09,1.6,.13,.52,.04,1.04,.05,1.57,.05,1.68,0,3.41-.2,5.18-.61s3.76-1.16,5.94-2.27c.31-.17,.66-.25,1.04-.25,.41,0,.79,.1,1.15,.31,.36,.2,.64,.51,.83,.92Zm-41.44-18.22c.65,0,1.26-.13,1.84-.38s1.08-.59,1.51-1.03,.77-.94,1.01-1.51c.24-.58,.36-1.19,.36-1.84s-.12-1.26-.36-1.84c-.24-.58-.58-1.07-1.01-1.49-.43-.42-.94-.76-1.51-1.01s-1.19-.38-1.84-.38h-3.92c-.48,.05-.9,.24-1.26,.58-.36,.34-.58,.74-.65,1.22v5.72c0,.55,.19,1.01,.58,1.39s.84,.56,1.37,.56h3.89Z"/><path class="cls-1" d="M87.49,48.77c.6,0,1.1,.21,1.51,.63,.41,.42,.61,.92,.61,1.49s-.2,1.1-.61,1.51c-.41,.41-.91,.61-1.51,.61h-11.3c-1.01,0-1.84-.27-2.48-.81-.65-.54-.97-1.22-.97-2.03V30.33c0-.82,.32-1.49,.97-2.03,.65-.54,1.48-.81,2.48-.81h11.2c.6,0,1.1,.21,1.51,.61,.41,.41,.61,.9,.61,1.48s-.2,1.1-.61,1.51-.91,.61-1.51,.61h-8.5c-.55,.05-1.01,.26-1.39,.65-.37,.38-.56,.85-.56,1.4v1.66c0,.58,.2,1.06,.61,1.46,.41,.4,.89,.59,1.44,.59h.18l.04,.04h5.51c.6,0,1.1,.2,1.51,.61,.41,.41,.61,.91,.61,1.51s-.2,1.07-.61,1.48-.91,.61-1.51,.61h-5.87c-.55,.05-1.01,.26-1.37,.65-.36,.38-.54,.85-.54,1.4v2.95c0,.58,.2,1.06,.61,1.46,.41,.4,.89,.59,1.44,.59h8.5Z"/><path class="cls-1" d="M103.9,31.52c-1.15,0-2.25,.21-3.29,.63-1.04,.42-1.99,1.05-2.83,1.89s-1.44,1.75-1.87,2.79c-.43,1.04-.65,2.14-.65,3.29s.22,2.29,.65,3.33c.43,1.04,1.06,1.97,1.87,2.79,.84,.84,1.79,1.48,2.86,1.91,1.07,.43,2.15,.65,3.26,.65s2.19-.22,3.26-.65c1.07-.43,2.02-1.07,2.86-1.91,.41-.41,.91-.61,1.49-.61s1.09,.2,1.49,.61c.41,.41,.61,.91,.61,1.49s-.21,1.09-.61,1.49c-1.22,1.22-2.62,2.16-4.18,2.81-1.56,.65-3.2,.97-4.93,.97s-3.37-.32-4.93-.97c-1.56-.65-2.95-1.58-4.18-2.81-1.22-1.22-2.15-2.62-2.79-4.18-.64-1.56-.95-3.2-.95-4.93s.32-3.37,.95-4.91,1.57-2.93,2.79-4.16c1.22-1.22,2.62-2.16,4.18-2.81,1.56-.65,3.2-.97,4.93-.97s3.37,.32,4.93,.97c1.56,.65,2.95,1.58,4.18,2.81,.41,.41,.61,.91,.61,1.49s-.21,1.09-.61,1.49c-.41,.41-.91,.61-1.49,.61s-1.09-.2-1.49-.61c-.82-.84-1.75-1.47-2.81-1.89-1.06-.42-2.16-.63-3.31-.63Z"/><path class="cls-1" d="M136.23,50.17c.19,.55,.17,1.09-.07,1.62-.24,.53-.64,.89-1.19,1.08-.55,.19-1.1,.17-1.64-.07-.54-.24-.91-.64-1.1-1.19l-.65-1.8c-.19-.48-.55-.9-1.08-1.26-.53-.36-1.07-.54-1.62-.54h-4.72c-.58,0-1.13,.18-1.66,.54-.53,.36-.88,.78-1.04,1.26l-.68,1.8c-.14,.43-.4,.77-.77,1.03-.37,.25-.77,.38-1.21,.38-.29,0-.53-.05-.72-.14-.55-.19-.95-.55-1.19-1.08-.24-.53-.26-1.07-.07-1.62l7.7-21.28c.14-.43,.4-.77,.76-1.03,.36-.25,.77-.38,1.22-.38s.86,.13,1.22,.38c.36,.25,.61,.58,.76,.99l7.74,21.31Zm-8.86-6.37c.55,0,.96-.19,1.22-.56,.26-.37,.3-.83,.11-1.39l-1.48-4.1c-.19-.55-.43-.83-.7-.83s-.51,.28-.7,.83l-1.51,4.1c-.19,.55-.15,1.01,.13,1.39,.28,.37,.69,.56,1.24,.56h1.69Z"/><path class="cls-1" d="M154.52,39.84c.98,.84,1.7,1.76,2.16,2.77,.46,1.15,.6,2.45,.43,3.89-.12,.86-.4,1.68-.83,2.45-.43,.77-1,1.43-1.69,1.98-1.61,1.32-3.71,1.98-6.3,1.98-1.22,0-2.38-.2-3.47-.61s-2.06-.98-2.9-1.73c-.77-.7-1.37-1.49-1.8-2.38-.43-.89-.65-1.78-.65-2.66v-.65c0-.58,.21-1.07,.63-1.48,.42-.41,.92-.61,1.49-.61s1.07,.2,1.49,.61c.42,.41,.63,.9,.63,1.48v.65c0,.22,.09,.5,.27,.86,.18,.36,.46,.71,.83,1.04,.37,.34,.85,.62,1.42,.86s1.26,.36,2.05,.36c.98,0,1.78-.11,2.38-.34,.6-.23,1.06-.49,1.39-.79,.32-.3,.55-.6,.67-.9s.19-.52,.22-.67c.07-.58,.04-1.08-.09-1.51-.13-.43-.4-.83-.81-1.19-.41-.36-.97-.7-1.67-1.03s-1.61-.65-2.72-.99c-1.7-.53-3.14-1.21-4.32-2.05-.94-.74-1.64-1.55-2.12-2.41-.62-1.1-.84-2.33-.65-3.67,.12-.77,.37-1.49,.74-2.16,.37-.67,.87-1.26,1.49-1.76,1.42-1.13,3.25-1.69,5.51-1.69,1.08,0,2.09,.17,3.02,.52,.94,.35,1.78,.85,2.52,1.49,.67,.62,1.19,1.33,1.57,2.11,.37,.78,.56,1.57,.56,2.36,0,.58-.2,1.07-.61,1.48-.41,.41-.9,.61-1.48,.61s-1.1-.2-1.51-.61c-.41-.41-.61-.9-.61-1.48,0-.17-.07-.38-.2-.63-.13-.25-.34-.5-.63-.74-.29-.24-.65-.45-1.08-.63-.43-.18-.95-.27-1.55-.27-1.3,0-2.25,.25-2.84,.76-.26,.22-.44,.44-.52,.67-.08,.23-.14,.4-.16,.52-.07,.46,.01,.87,.25,1.24,.24,.37,.56,.71,.97,1.01,.41,.3,.87,.56,1.39,.77,.52,.22,1.03,.4,1.53,.54,.94,.29,1.9,.64,2.9,1.04,1,.41,1.9,.94,2.72,1.58Z"/><path class="cls-1" d="M176.3,27.35c.58,0,1.07,.2,1.49,.61,.42,.41,.63,.91,.63,1.51s-.21,1.07-.63,1.48c-.42,.41-.92,.61-1.49,.61h-3.96c-.55,.02-1.03,.23-1.42,.63s-.59,.87-.59,1.42v17.17c0,.58-.2,1.08-.61,1.49-.41,.42-.91,.63-1.51,.63s-1.07-.21-1.48-.63c-.41-.42-.61-.92-.61-1.49v-16.31h-.04v-.86c0-.55-.19-1.03-.58-1.42-.38-.4-.85-.61-1.4-.63h-3.96c-.6,0-1.1-.2-1.51-.61-.41-.41-.61-.9-.61-1.48s.2-1.1,.61-1.51c.41-.41,.91-.61,1.51-.61h16.16Z"/></g></g></svg>